<?xml version="1.0" encoding="UTF-8"?><svg id="Calque_1" xmlns="http://www.w3.org/2000/svg" viewBox="0 0 50.69 11.32"><defs><style>.cls-1{fill:#f7e7bf;}.cls-2{fill:#fff;}.cls-3{fill:#ce0000;}.cls-4{fill:#213518;}.cls-5{fill:#555b61;}</style></defs><circle class="cls-1" cx="21.01" cy="7.27" r="2.87"/><path d="m2.19,11.21H.34V.27h2.88l3.3,6.87L9.83.27h2.86v10.94h-1.85V2.66l-3.82,7.59h-1.03L2.19,2.66v8.55Z"/><path class="cls-3" d="m24.89,9.7c-1.11,1.08-2.47,1.62-4.1,1.62s-3-.54-4.1-1.62c-1.11-1.08-1.66-2.43-1.66-4.04s.55-2.96,1.66-4.04c1.11-1.08,2.47-1.62,4.1-1.62s3,.54,4.1,1.62c1.11,1.08,1.66,2.43,1.66,4.04s-.55,2.96-1.66,4.04Zm-1.35-6.85c-.75-.77-1.66-1.16-2.75-1.16s-2,.39-2.75,1.16c-.75.77-1.12,1.71-1.12,2.81s.37,2.04,1.12,2.81c.75.77,1.66,1.16,2.75,1.16s2-.39,2.75-1.16c.75-.77,1.12-1.71,1.12-2.81s-.37-2.04-1.12-2.81Z"/><path d="m37.08.27h1.85v10.94h-2l-6.2-7.98v7.98h-1.85V.27h1.85l6.36,8.17V.27Z"/><path d="m46.27,11.21h-1.88v-4.32L40.32.27h2.02l2.99,4.98,2.99-4.98h2.02l-4.07,6.62v4.32Z"/><path class="cls-2" d="m24.19,8.08s0,.08,0,.13c-.06.33-.25.64-.54.86s-.66.34-1.03.33c-.25,0-.49-.06-.72-.14-.11-.04-.22-.09-.32-.14-.08-.05-.16-.1-.25-.14-.03-.01-.07-.02-.1-.02-.03,0-.05.02-.08.03-.08.05-.14.12-.21.18-.08.07-.18.14-.28.2-.26.16-.55.28-.86.31,0,0-.01,0-.02,0s-.01,0-.02,0-.01,0-.02,0-.01,0-.02,0-.01,0-.02,0-.01,0-.02,0-.01,0-.02,0-.01,0-.02,0-.01,0-.02,0-.01,0-.02,0-.01,0-.02,0-.01,0-.02,0-.01,0-.02,0-.01,0-.02,0-.01,0-.02,0-.01,0-.02,0-.01,0-.02,0-.01,0-.02,0-.01,0-.02,0-.01,0-.02,0-.01,0-.02,0-.01,0-.02,0-.01,0-.02,0,0,0-.01,0,0,0-.01,0,0,0-.01,0,0,0-.01,0,0,0-.01,0,0,0-.01,0,0,0-.01,0,0,0-.01,0,0,0-.01,0,0,0-.01,0,0,0-.01,0,0,0-.01,0,0,0-.01,0,0,0-.01,0,0,0-.01,0,0,0-.01,0,0,0-.01,0,0,0-.01,0,0,0-.01,0,0,0-.01,0,0,0-.01,0,0,0-.01,0,0,0-.01,0,0,0-.01,0,0,0-.01,0,0,0-.01,0,0,0-.01,0,0,0-.01,0,0,0-.01,0,0,0-.01,0,0,0-.01,0,0,0-.01,0,0,0-.01,0,0,0-.01,0,0,0-.01,0,0,0-.01,0,0,0-.01,0,0,0-.01,0,0,0-.01,0,0,0-.01,0,0,0-.01,0,0,0-.01,0,0,0-.01,0,0,0-.01,0,0,0-.01,0,0,0-.01,0,0,0-.01,0,0,0-.01,0,0,0-.01,0,0,0-.01,0,0,0-.01,0,0,0-.01,0,0,0-.01,0,0,0-.01,0,0,0-.01,0,0,0-.01,0,0,0-.01,0,0,0-.01,0,0,0-.01,0,0,0-.01,0,0,0-.01,0,0,0-.01,0,0,0-.01,0,0,0-.01,0,0,0-.01,0,0,0-.01,0,0,0-.01,0,0,0-.01,0,0,0-.01,0,0,0-.01,0,0,0-.01,0,0,0-.01,0,0,0-.01,0,0,0-.01,0,0,0-.01,0c0,0,0,0,0,0,0,0,0,0,0,0,0,0,0,0,0,0,0,0,0,0,0,0,0,0,0,0-.01-.01s0,0-.01-.01,0,0-.01-.01,0,0-.01-.01,0,0-.01-.01,0,0-.01-.01,0,0,0-.01,0,0,0-.01,0,0,0-.01,0,0,0-.01,0,0,0-.01,0,0,0-.01,0,0,0-.01,0,0,0-.01,0,0,0-.01,0,0,0-.01,0,0,0-.01,0,0,0-.01,0,0,0-.01,0,0,0-.01,0,0,0-.01,0,0,0-.01,0,0,0-.01,0,0,0-.01,0,0,0-.01,0,0,0-.01,0,0,0-.01,0,0,0-.01,0,0,0-.01,0,0,0-.01,0,0,0-.01c0,0,0,0,0-.01-.03-.07-.05-.14-.04-.22,0-.03.02-.06.05-.07.02,0,.05,0,.07,0,.05.02.09.07.12.11.08.1.16.19.27.26s.25.1.37.07c.1-.02.18-.08.25-.15s.12-.15.18-.23c.11-.14.25-.27.4-.38.11-.08.24-.14.38-.17s.29-.01.41.06c.07.04.13.11.2.15.06.03.14.05.21.05.03,0,.07,0,.1,0,.03,0,.06,0,.09,0,.07,0,.14-.04.19-.08.07-.06.11-.14.18-.2.07-.07.18-.1.28-.12s.21,0,.31.03c.27.07.5.22.71.39.07.06.13.12.21.17s.16.09.26.09c.13,0,.25-.05.34-.13s.15-.18.2-.29c.03-.06.06-.12.11-.16.02-.01.03-.02.06-.02.03,0,.05.02.07.05.02.03.03.07.03.1Z"/><path class="cls-5" d="m17.84,5.79s0,0,0,0c.02-.7-.09-1.4-.32-2.06-.07-.21-.16-.44-.08-.65.05-.12.14-.22.24-.31.27-.24.59-.42.92-.57,1.48-.69,3.25-.74,4.77-.14.25.1.52.25.59.51.04.14,0,.3-.02.44-.11.64-.11,1.3,0,1.94,0,.05.02.1.05.13.03.03.08.04.12.05.29.04.59-.03.87.02s.59.28.55.57c-.02.13-.11.25-.2.35-.16.19-.32.37-.51.52-.32.23-.72.33-1.11.4-1.47.3-2.96.45-4.46.51-.83.04-2.21.12-2.69-.73-.08-.14-.11-.33-.03-.48.06-.11.18-.18.29-.24.32-.16.67-.25,1.02-.27Z"/><path class="cls-4" d="m17.85,5.79s3.4.24,6.15-.71c0,0-.16-.27-.14-.92,0,0-3.34.99-6.09.56,0,0,.11.75.07,1.07Z"/></svg>